<?xml version="1.0" encoding="utf-8" standalone="no"?>
<!DOCTYPE svg PUBLIC "-//W3C//DTD SVG 1.1//EN"
  "http://www.w3.org/Graphics/SVG/1.1/DTD/svg11.dtd">
<svg xmlns:xlink="http://www.w3.org/1999/xlink" width="460.8pt" height="345.6pt" viewBox="0 0 460.8 345.6" xmlns="http://www.w3.org/2000/svg" version="1.1">
 <metadata>
  <rdf:RDF xmlns:dc="http://purl.org/dc/elements/1.1/" xmlns:cc="http://creativecommons.org/ns#" xmlns:rdf="http://www.w3.org/1999/02/22-rdf-syntax-ns#">
   <cc:Work>
    <dc:type rdf:resource="http://purl.org/dc/dcmitype/StillImage"/>
    <dc:date>2023-10-15T09:16:14.683574</dc:date>
    <dc:format>image/svg+xml</dc:format>
    <dc:creator>
     <cc:Agent>
      <dc:title>Matplotlib v3.5.2, https://matplotlib.org/</dc:title>
     </cc:Agent>
    </dc:creator>
   </cc:Work>
  </rdf:RDF>
 </metadata>
 <defs>
  <style type="text/css">*{stroke-linejoin: round; stroke-linecap: butt}</style>
 </defs>
 <g id="figure_1">
  <g id="patch_1">
   <path d="M 0 345.6 
L 460.8 345.6 
L 460.8 0 
L 0 0 
z
" style="fill: #ffffff"/>
  </g>
  <g id="axes_1">
   <g id="patch_2">
    <path d="M 57.6 307.584 
L 414.72 307.584 
L 414.72 41.472 
L 57.6 41.472 
z
" style="fill: #ffffff"/>
   </g>
   <g id="matplotlib.axis_1">
    <g id="xtick_1">
     <g id="line2d_1">
      <defs>
       <path id="m2c3982acfe" d="M 0 0 
L 0 3.5 
" style="stroke: #000000; stroke-width: 0.8"/>
      </defs>
      <g>
       <use xlink:href="#m2c3982acfe" x="57.669586" y="307.584" style="stroke: #000000; stroke-width: 0.8"/>
      </g>
     </g>
     <g id="text_1">
      <!-- −9 -->
      <g transform="translate(50.298492 322.182437)scale(0.1 -0.1)">
       <defs>
        <path id="DejaVuSans-2212" d="M 678 2272 
L 4684 2272 
L 4684 1741 
L 678 1741 
L 678 2272 
z
" transform="scale(0.015625)"/>
        <path id="DejaVuSans-39" d="M 703 97 
L 703 672 
Q 941 559 1184 500 
Q 1428 441 1663 441 
Q 2288 441 2617 861 
Q 2947 1281 2994 2138 
Q 2813 1869 2534 1725 
Q 2256 1581 1919 1581 
Q 1219 1581 811 2004 
Q 403 2428 403 3163 
Q 403 3881 828 4315 
Q 1253 4750 1959 4750 
Q 2769 4750 3195 4129 
Q 3622 3509 3622 2328 
Q 3622 1225 3098 567 
Q 2575 -91 1691 -91 
Q 1453 -91 1209 -44 
Q 966 3 703 97 
z
M 1959 2075 
Q 2384 2075 2632 2365 
Q 2881 2656 2881 3163 
Q 2881 3666 2632 3958 
Q 2384 4250 1959 4250 
Q 1534 4250 1286 3958 
Q 1038 3666 1038 3163 
Q 1038 2656 1286 2365 
Q 1534 2075 1959 2075 
z
" transform="scale(0.015625)"/>
       </defs>
       <use xlink:href="#DejaVuSans-2212"/>
       <use xlink:href="#DejaVuSans-39" x="83.789062"/>
      </g>
     </g>
    </g>
    <g id="xtick_2">
     <g id="line2d_2">
      <g>
       <use xlink:href="#m2c3982acfe" x="98.054588" y="307.584" style="stroke: #000000; stroke-width: 0.8"/>
      </g>
     </g>
     <g id="text_2">
      <!-- −8 -->
      <g transform="translate(90.683495 322.182437)scale(0.1 -0.1)">
       <defs>
        <path id="DejaVuSans-38" d="M 2034 2216 
Q 1584 2216 1326 1975 
Q 1069 1734 1069 1313 
Q 1069 891 1326 650 
Q 1584 409 2034 409 
Q 2484 409 2743 651 
Q 3003 894 3003 1313 
Q 3003 1734 2745 1975 
Q 2488 2216 2034 2216 
z
M 1403 2484 
Q 997 2584 770 2862 
Q 544 3141 544 3541 
Q 544 4100 942 4425 
Q 1341 4750 2034 4750 
Q 2731 4750 3128 4425 
Q 3525 4100 3525 3541 
Q 3525 3141 3298 2862 
Q 3072 2584 2669 2484 
Q 3125 2378 3379 2068 
Q 3634 1759 3634 1313 
Q 3634 634 3220 271 
Q 2806 -91 2034 -91 
Q 1263 -91 848 271 
Q 434 634 434 1313 
Q 434 1759 690 2068 
Q 947 2378 1403 2484 
z
M 1172 3481 
Q 1172 3119 1398 2916 
Q 1625 2713 2034 2713 
Q 2441 2713 2670 2916 
Q 2900 3119 2900 3481 
Q 2900 3844 2670 4047 
Q 2441 4250 2034 4250 
Q 1625 4250 1398 4047 
Q 1172 3844 1172 3481 
z
" transform="scale(0.015625)"/>
       </defs>
       <use xlink:href="#DejaVuSans-2212"/>
       <use xlink:href="#DejaVuSans-38" x="83.789062"/>
      </g>
     </g>
    </g>
    <g id="xtick_3">
     <g id="line2d_3">
      <g>
       <use xlink:href="#m2c3982acfe" x="138.439575" y="307.584" style="stroke: #000000; stroke-width: 0.8"/>
      </g>
     </g>
     <g id="text_3">
      <!-- −7 -->
      <g transform="translate(131.068481 322.182437)scale(0.1 -0.1)">
       <defs>
        <path id="DejaVuSans-37" d="M 525 4666 
L 3525 4666 
L 3525 4397 
L 1831 0 
L 1172 0 
L 2766 4134 
L 525 4134 
L 525 4666 
z
" transform="scale(0.015625)"/>
       </defs>
       <use xlink:href="#DejaVuSans-2212"/>
       <use xlink:href="#DejaVuSans-37" x="83.789062"/>
      </g>
     </g>
    </g>
    <g id="xtick_4">
     <g id="line2d_4">
      <g>
       <use xlink:href="#m2c3982acfe" x="178.824577" y="307.584" style="stroke: #000000; stroke-width: 0.8"/>
      </g>
     </g>
     <g id="text_4">
      <!-- −6 -->
      <g transform="translate(171.453484 322.182437)scale(0.1 -0.1)">
       <defs>
        <path id="DejaVuSans-36" d="M 2113 2584 
Q 1688 2584 1439 2293 
Q 1191 2003 1191 1497 
Q 1191 994 1439 701 
Q 1688 409 2113 409 
Q 2538 409 2786 701 
Q 3034 994 3034 1497 
Q 3034 2003 2786 2293 
Q 2538 2584 2113 2584 
z
M 3366 4563 
L 3366 3988 
Q 3128 4100 2886 4159 
Q 2644 4219 2406 4219 
Q 1781 4219 1451 3797 
Q 1122 3375 1075 2522 
Q 1259 2794 1537 2939 
Q 1816 3084 2150 3084 
Q 2853 3084 3261 2657 
Q 3669 2231 3669 1497 
Q 3669 778 3244 343 
Q 2819 -91 2113 -91 
Q 1303 -91 875 529 
Q 447 1150 447 2328 
Q 447 3434 972 4092 
Q 1497 4750 2381 4750 
Q 2619 4750 2861 4703 
Q 3103 4656 3366 4563 
z
" transform="scale(0.015625)"/>
       </defs>
       <use xlink:href="#DejaVuSans-2212"/>
       <use xlink:href="#DejaVuSans-36" x="83.789062"/>
      </g>
     </g>
    </g>
    <g id="xtick_5">
     <g id="line2d_5">
      <g>
       <use xlink:href="#m2c3982acfe" x="219.209579" y="307.584" style="stroke: #000000; stroke-width: 0.8"/>
      </g>
     </g>
     <g id="text_5">
      <!-- −5 -->
      <g transform="translate(211.838486 322.182437)scale(0.1 -0.1)">
       <defs>
        <path id="DejaVuSans-35" d="M 691 4666 
L 3169 4666 
L 3169 4134 
L 1269 4134 
L 1269 2991 
Q 1406 3038 1543 3061 
Q 1681 3084 1819 3084 
Q 2600 3084 3056 2656 
Q 3513 2228 3513 1497 
Q 3513 744 3044 326 
Q 2575 -91 1722 -91 
Q 1428 -91 1123 -41 
Q 819 9 494 109 
L 494 744 
Q 775 591 1075 516 
Q 1375 441 1709 441 
Q 2250 441 2565 725 
Q 2881 1009 2881 1497 
Q 2881 1984 2565 2268 
Q 2250 2553 1709 2553 
Q 1456 2553 1204 2497 
Q 953 2441 691 2322 
L 691 4666 
z
" transform="scale(0.015625)"/>
       </defs>
       <use xlink:href="#DejaVuSans-2212"/>
       <use xlink:href="#DejaVuSans-35" x="83.789062"/>
      </g>
     </g>
    </g>
    <g id="xtick_6">
     <g id="line2d_6">
      <g>
       <use xlink:href="#m2c3982acfe" x="259.594574" y="307.584" style="stroke: #000000; stroke-width: 0.8"/>
      </g>
     </g>
     <g id="text_6">
      <!-- −4 -->
      <g transform="translate(252.22348 322.182437)scale(0.1 -0.1)">
       <defs>
        <path id="DejaVuSans-34" d="M 2419 4116 
L 825 1625 
L 2419 1625 
L 2419 4116 
z
M 2253 4666 
L 3047 4666 
L 3047 1625 
L 3713 1625 
L 3713 1100 
L 3047 1100 
L 3047 0 
L 2419 0 
L 2419 1100 
L 313 1100 
L 313 1709 
L 2253 4666 
z
" transform="scale(0.015625)"/>
       </defs>
       <use xlink:href="#DejaVuSans-2212"/>
       <use xlink:href="#DejaVuSans-34" x="83.789062"/>
      </g>
     </g>
    </g>
    <g id="xtick_7">
     <g id="line2d_7">
      <g>
       <use xlink:href="#m2c3982acfe" x="299.979568" y="307.584" style="stroke: #000000; stroke-width: 0.8"/>
      </g>
     </g>
     <g id="text_7">
      <!-- −3 -->
      <g transform="translate(292.608475 322.182437)scale(0.1 -0.1)">
       <defs>
        <path id="DejaVuSans-33" d="M 2597 2516 
Q 3050 2419 3304 2112 
Q 3559 1806 3559 1356 
Q 3559 666 3084 287 
Q 2609 -91 1734 -91 
Q 1441 -91 1130 -33 
Q 819 25 488 141 
L 488 750 
Q 750 597 1062 519 
Q 1375 441 1716 441 
Q 2309 441 2620 675 
Q 2931 909 2931 1356 
Q 2931 1769 2642 2001 
Q 2353 2234 1838 2234 
L 1294 2234 
L 1294 2753 
L 1863 2753 
Q 2328 2753 2575 2939 
Q 2822 3125 2822 3475 
Q 2822 3834 2567 4026 
Q 2313 4219 1838 4219 
Q 1578 4219 1281 4162 
Q 984 4106 628 3988 
L 628 4550 
Q 988 4650 1302 4700 
Q 1616 4750 1894 4750 
Q 2613 4750 3031 4423 
Q 3450 4097 3450 3541 
Q 3450 3153 3228 2886 
Q 3006 2619 2597 2516 
z
" transform="scale(0.015625)"/>
       </defs>
       <use xlink:href="#DejaVuSans-2212"/>
       <use xlink:href="#DejaVuSans-33" x="83.789062"/>
      </g>
     </g>
    </g>
    <g id="xtick_8">
     <g id="line2d_8">
      <g>
       <use xlink:href="#m2c3982acfe" x="340.364571" y="307.584" style="stroke: #000000; stroke-width: 0.8"/>
      </g>
     </g>
     <g id="text_8">
      <!-- −2 -->
      <g transform="translate(332.993477 322.182437)scale(0.1 -0.1)">
       <defs>
        <path id="DejaVuSans-32" d="M 1228 531 
L 3431 531 
L 3431 0 
L 469 0 
L 469 531 
Q 828 903 1448 1529 
Q 2069 2156 2228 2338 
Q 2531 2678 2651 2914 
Q 2772 3150 2772 3378 
Q 2772 3750 2511 3984 
Q 2250 4219 1831 4219 
Q 1534 4219 1204 4116 
Q 875 4013 500 3803 
L 500 4441 
Q 881 4594 1212 4672 
Q 1544 4750 1819 4750 
Q 2544 4750 2975 4387 
Q 3406 4025 3406 3419 
Q 3406 3131 3298 2873 
Q 3191 2616 2906 2266 
Q 2828 2175 2409 1742 
Q 1991 1309 1228 531 
z
" transform="scale(0.015625)"/>
       </defs>
       <use xlink:href="#DejaVuSans-2212"/>
       <use xlink:href="#DejaVuSans-32" x="83.789062"/>
      </g>
     </g>
    </g>
    <g id="xtick_9">
     <g id="line2d_9">
      <g>
       <use xlink:href="#m2c3982acfe" x="380.749565" y="307.584" style="stroke: #000000; stroke-width: 0.8"/>
      </g>
     </g>
     <g id="text_9">
      <!-- −1 -->
      <g transform="translate(373.378471 322.182437)scale(0.1 -0.1)">
       <defs>
        <path id="DejaVuSans-31" d="M 794 531 
L 1825 531 
L 1825 4091 
L 703 3866 
L 703 4441 
L 1819 4666 
L 2450 4666 
L 2450 531 
L 3481 531 
L 3481 0 
L 794 0 
L 794 531 
z
" transform="scale(0.015625)"/>
       </defs>
       <use xlink:href="#DejaVuSans-2212"/>
       <use xlink:href="#DejaVuSans-31" x="83.789062"/>
      </g>
     </g>
    </g>
    <g id="text_10">
     <!-- 1e−9−1.0647886 -->
     <g transform="translate(325.004375 334.860562)scale(0.1 -0.1)">
      <defs>
       <path id="DejaVuSans-65" d="M 3597 1894 
L 3597 1613 
L 953 1613 
Q 991 1019 1311 708 
Q 1631 397 2203 397 
Q 2534 397 2845 478 
Q 3156 559 3463 722 
L 3463 178 
Q 3153 47 2828 -22 
Q 2503 -91 2169 -91 
Q 1331 -91 842 396 
Q 353 884 353 1716 
Q 353 2575 817 3079 
Q 1281 3584 2069 3584 
Q 2775 3584 3186 3129 
Q 3597 2675 3597 1894 
z
M 3022 2063 
Q 3016 2534 2758 2815 
Q 2500 3097 2075 3097 
Q 1594 3097 1305 2825 
Q 1016 2553 972 2059 
L 3022 2063 
z
" transform="scale(0.015625)"/>
       <path id="DejaVuSans-2e" d="M 684 794 
L 1344 794 
L 1344 0 
L 684 0 
L 684 794 
z
" transform="scale(0.015625)"/>
       <path id="DejaVuSans-30" d="M 2034 4250 
Q 1547 4250 1301 3770 
Q 1056 3291 1056 2328 
Q 1056 1369 1301 889 
Q 1547 409 2034 409 
Q 2525 409 2770 889 
Q 3016 1369 3016 2328 
Q 3016 3291 2770 3770 
Q 2525 4250 2034 4250 
z
M 2034 4750 
Q 2819 4750 3233 4129 
Q 3647 3509 3647 2328 
Q 3647 1150 3233 529 
Q 2819 -91 2034 -91 
Q 1250 -91 836 529 
Q 422 1150 422 2328 
Q 422 3509 836 4129 
Q 1250 4750 2034 4750 
z
" transform="scale(0.015625)"/>
      </defs>
      <use xlink:href="#DejaVuSans-31"/>
      <use xlink:href="#DejaVuSans-65" x="63.623047"/>
      <use xlink:href="#DejaVuSans-2212" x="125.146484"/>
      <use xlink:href="#DejaVuSans-39" x="208.935547"/>
      <use xlink:href="#DejaVuSans-2212" x="272.558594"/>
      <use xlink:href="#DejaVuSans-31" x="356.347656"/>
      <use xlink:href="#DejaVuSans-2e" x="419.970703"/>
      <use xlink:href="#DejaVuSans-30" x="451.757812"/>
      <use xlink:href="#DejaVuSans-36" x="515.380859"/>
      <use xlink:href="#DejaVuSans-34" x="579.003906"/>
      <use xlink:href="#DejaVuSans-37" x="642.626953"/>
      <use xlink:href="#DejaVuSans-38" x="706.25"/>
      <use xlink:href="#DejaVuSans-38" x="769.873047"/>
      <use xlink:href="#DejaVuSans-36" x="833.496094"/>
     </g>
    </g>
   </g>
   <g id="matplotlib.axis_2">
    <g id="ytick_1">
     <g id="line2d_10">
      <defs>
       <path id="m54a6f76c2f" d="M 0 0 
L -3.5 0 
" style="stroke: #000000; stroke-width: 0.8"/>
      </defs>
      <g>
       <use xlink:href="#m54a6f76c2f" x="57.6" y="278.250525" style="stroke: #000000; stroke-width: 0.8"/>
      </g>
     </g>
     <g id="text_11">
      <!-- −7 -->
      <g transform="translate(35.857813 282.049743)scale(0.1 -0.1)">
       <use xlink:href="#DejaVuSans-2212"/>
       <use xlink:href="#DejaVuSans-37" x="83.789062"/>
      </g>
     </g>
    </g>
    <g id="ytick_2">
     <g id="line2d_11">
      <g>
       <use xlink:href="#m54a6f76c2f" x="57.6" y="237.865526" style="stroke: #000000; stroke-width: 0.8"/>
      </g>
     </g>
     <g id="text_12">
      <!-- −6 -->
      <g transform="translate(35.857813 241.664745)scale(0.1 -0.1)">
       <use xlink:href="#DejaVuSans-2212"/>
       <use xlink:href="#DejaVuSans-36" x="83.789062"/>
      </g>
     </g>
    </g>
    <g id="ytick_3">
     <g id="line2d_12">
      <g>
       <use xlink:href="#m54a6f76c2f" x="57.6" y="197.480528" style="stroke: #000000; stroke-width: 0.8"/>
      </g>
     </g>
     <g id="text_13">
      <!-- −5 -->
      <g transform="translate(35.857813 201.279746)scale(0.1 -0.1)">
       <use xlink:href="#DejaVuSans-2212"/>
       <use xlink:href="#DejaVuSans-35" x="83.789062"/>
      </g>
     </g>
    </g>
    <g id="ytick_4">
     <g id="line2d_13">
      <g>
       <use xlink:href="#m54a6f76c2f" x="57.6" y="157.095531" style="stroke: #000000; stroke-width: 0.8"/>
      </g>
     </g>
     <g id="text_14">
      <!-- −4 -->
      <g transform="translate(35.857813 160.89475)scale(0.1 -0.1)">
       <use xlink:href="#DejaVuSans-2212"/>
       <use xlink:href="#DejaVuSans-34" x="83.789062"/>
      </g>
     </g>
    </g>
    <g id="ytick_5">
     <g id="line2d_14">
      <g>
       <use xlink:href="#m54a6f76c2f" x="57.6" y="116.710535" style="stroke: #000000; stroke-width: 0.8"/>
      </g>
     </g>
     <g id="text_15">
      <!-- −3 -->
      <g transform="translate(35.857813 120.509753)scale(0.1 -0.1)">
       <use xlink:href="#DejaVuSans-2212"/>
       <use xlink:href="#DejaVuSans-33" x="83.789062"/>
      </g>
     </g>
    </g>
    <g id="ytick_6">
     <g id="line2d_15">
      <g>
       <use xlink:href="#m54a6f76c2f" x="57.6" y="76.325537" style="stroke: #000000; stroke-width: 0.8"/>
      </g>
     </g>
     <g id="text_16">
      <!-- −2 -->
      <g transform="translate(35.857813 80.124755)scale(0.1 -0.1)">
       <use xlink:href="#DejaVuSans-2212"/>
       <use xlink:href="#DejaVuSans-32" x="83.789062"/>
      </g>
     </g>
    </g>
    <g id="text_17">
     <!-- 1e−9−2.6106989e−1 -->
     <g transform="translate(57.6 38.472)scale(0.1 -0.1)">
      <use xlink:href="#DejaVuSans-31"/>
      <use xlink:href="#DejaVuSans-65" x="63.623047"/>
      <use xlink:href="#DejaVuSans-2212" x="125.146484"/>
      <use xlink:href="#DejaVuSans-39" x="208.935547"/>
      <use xlink:href="#DejaVuSans-2212" x="272.558594"/>
      <use xlink:href="#DejaVuSans-32" x="356.347656"/>
      <use xlink:href="#DejaVuSans-2e" x="419.970703"/>
      <use xlink:href="#DejaVuSans-36" x="451.757812"/>
      <use xlink:href="#DejaVuSans-31" x="515.380859"/>
      <use xlink:href="#DejaVuSans-30" x="579.003906"/>
      <use xlink:href="#DejaVuSans-36" x="642.626953"/>
      <use xlink:href="#DejaVuSans-39" x="706.25"/>
      <use xlink:href="#DejaVuSans-38" x="769.873047"/>
      <use xlink:href="#DejaVuSans-39" x="833.496094"/>
      <use xlink:href="#DejaVuSans-65" x="897.119141"/>
      <use xlink:href="#DejaVuSans-2212" x="958.642578"/>
      <use xlink:href="#DejaVuSans-31" x="1042.431641"/>
     </g>
    </g>
   </g>
   <g id="line2d_16">
    <path d="M 275.400391 53.568001 
L 274.688652 55.733772 
L 273.988007 57.022514 
L 272.936432 58.298061 
L 271.387978 60.006762 
L 270.831093 60.882967 
L 270.581184 61.784502 
L 270.641426 62.714022 
L 271.062515 64.154768 
L 271.523399 65.642441 
L 271.523399 65.642441 
L 271.671242 66.651731 
L 271.640228 67.652601 
L 271.412315 68.62018 
L 270.969482 69.529604 
L 270.2957 70.357483 
L 268.931427 71.479548 
L 266.354073 73.404581 
L 266.354073 73.404579 
L 264.987999 74.777042 
L 262.906258 76.949774 
L 262.033791 77.569372 
L 261.109314 77.983229 
L 260.146919 78.206377 
L 259.161835 78.255707 
L 257.674774 78.041674 
L 255.728302 77.419928 
L 253.861526 76.854418 
L 252.546822 76.740679 
L 251.744171 76.87068 
L 251.026314 77.189247 
L 250.415314 77.716881 
L 250.415314 77.716879 
L 249.918739 78.460909 
L 249.053429 80.403915 
L 248.261429 82.029177 
L 248.261429 82.029177 
L 247.56115 83.085817 
L 246.290062 84.515621 
L 245.351425 85.303679 
L 244.38443 85.910248 
L 244.38443 85.910248 
L 243.420456 86.30962 
L 241.985847 86.614464 
L 235.768883 87.203938 
L 233.884743 87.217741 
L 232.448807 87.029102 
L 230.955269 86.598705 
L 229.430763 85.896469 
L 227.996147 84.944889 
L 227.153343 84.185328 
L 227.153343 84.185328 
L 226.439529 83.336214 
L 225.621498 81.926201 
L 225.104965 80.399061 
L 224.872635 78.811785 
L 224.647102 76.800426 
L 224.363167 75.937464 
L 223.846008 75.225258 
L 223.10717 74.647474 
L 221.030609 73.301785 
L 220.407738 72.605799 
L 219.974197 71.775997 
L 218.73278 68.698019 
L 218.162598 68.007051 
L 217.487793 67.466673 
L 216.740562 67.101494 
L 215.953133 66.936131 
L 215.953133 66.936131 
L 215.150024 66.983181 
L 213.900047 67.370714 
L 209.557953 69.208471 
L 208.608086 69.302923 
L 207.768364 69.092279 
L 207.068604 68.522081 
L 206.149467 67.19796 
L 205.150002 65.684896 
L 204.31105 64.777174 
L 203.329117 64.056128 
L 202.294731 63.569729 
L 201.30204 63.364334 
L 200.445152 63.48629 
L 200.445152 63.48629 
L 199.804924 63.955685 
L 199.409088 64.68759 
L 199.27211 65.57081 
L 199.408424 66.494156 
L 199.829041 67.349958 
L 200.817909 68.473562 
L 201.786743 69.571779 
L 202.168259 70.385969 
L 202.209579 71.313021 
L 202.001625 72.310236 
L 201.306709 74.698269 
L 201.295441 75.465736 
L 201.485832 76.13509 
L 202.067841 77.067717 
L 203.543777 78.798895 
L 204.68145 79.87015 
L 205.563484 80.481966 
L 206.553833 80.94762 
L 210.005951 82.17878 
L 210.633873 82.80064 
L 211.015472 83.63426 
L 211.202789 84.61768 
L 211.239807 86.230831 
L 211.064651 88.3311 
L 210.687614 89.772839 
L 210.230461 90.662811 
L 209.556808 91.491943 
L 207.8246 93.020935 
L 206.71769 94.147358 
L 206.321487 94.932676 
L 206.238724 95.758101 
L 206.374931 96.617973 
L 207.26284 100.286356 
L 207.351456 102.229733 
L 207.196571 104.24048 
L 206.809265 105.70874 
L 206.349831 106.617462 
L 205.686462 107.437994 
L 204.831482 108.13979 
L 203.846123 108.689289 
L 202.793671 109.052813 
L 201.737473 109.196665 
L 201.73748 109.196665 
L 200.727623 109.110334 
L 198.822189 108.599068 
L 197.42971 108.334204 
L 196.496208 108.386255 
L 195.136215 108.775389 
L 193.912926 109.396662 
L 192.922813 110.103472 
L 192.227959 110.890797 
L 191.948463 111.502949 
L 191.829605 112.215275 
L 191.829605 112.215275 
L 191.882622 113.039959 
L 192.116783 113.933781 
L 192.540939 114.839682 
L 193.163925 115.700592 
L 193.991592 116.461893 
L 197.161125 118.739395 
L 197.607994 119.523531 
L 197.739052 120.425125 
L 197.601334 121.909826 
L 197.42971 123.427252 
L 197.42971 123.427252 
L 197.510933 124.871954 
L 197.612274 126.760519 
L 197.42971 127.739553 
L 197.42971 127.739553 
L 196.982262 128.755339 
L 196.302879 129.747574 
L 195.451584 130.639387 
L 194.488335 131.353888 
L 193.472588 131.818184 
L 192.4506 132.051107 
L 189.67572 132.483082 
L 189.67572 132.483082 
L 188.952187 132.894085 
L 188.361511 133.487333 
L 187.912201 134.222277 
L 187.612724 135.058378 
L 187.445831 136.418734 
L 187.34478 138.827791 
L 187.091057 139.81399 
L 187.091057 139.81399 
L 186.598816 140.794813 
L 185.901253 141.738375 
L 184.598526 143.004116 
L 183.163284 143.982618 
L 181.721161 144.649752 
L 179.337059 145.419979 
L 179.337067 145.419979 
L 176.494156 146.193432 
L 175.029297 146.282438 
L 175.029297 146.282438 
L 174.024765 146.137087 
L 173.021866 145.807789 
L 172.051025 145.286392 
L 171.142723 144.564749 
L 170.325539 143.637659 
L 167.711746 140.128277 
L 166.804649 139.5898 
L 165.79406 139.339622 
L 163.791092 138.988693 
L 162.967529 138.520302 
L 162.347382 137.680996 
L 161.671249 136.105995 
L 161.054077 134.850704 
L 160.813644 134.639231 
L 160.813644 134.639231 
L 160.540833 134.571167 
L 159.900177 134.800962 
L 158.732773 135.722473 
L 157.367424 136.795382 
L 157.367424 136.79538 
L 156.379433 137.325262 
L 155.372322 137.657404 
L 154.390099 137.797167 
L 153.476761 137.749918 
L 152.674294 137.521257 
L 151.979355 137.122293 
L 151.031281 136.240889 
L 147.701172 132.581257 
L 146.945503 132.133327 
L 146.277557 132.081764 
L 145.725388 132.442041 
L 145.300446 133.123653 
L 145.013374 134.031496 
L 144.874878 135.070459 
L 144.874886 135.070459 
L 144.805122 138.631861 
L 144.444107 139.382759 
L 144.444107 139.382759 
L 143.765892 139.935194 
L 141.258926 141.24147 
L 140.831764 141.889103 
L 140.718819 142.729027 
L 140.69986 145.309725 
L 140.346275 146.383625 
L 139.672844 147.374586 
L 138.772942 148.184952 
L 137.745682 148.716206 
L 136.690117 148.869818 
L 136.690117 148.869818 
L 135.684891 148.591572 
L 134.726784 148.004402 
L 132.382347 146.282438 
L 131.410698 145.897997 
L 130.427269 145.75902 
L 129.45607 145.834566 
L 128.521034 146.093697 
L 127.232193 146.756845 
L 125.701904 147.943274 
L 123.112503 150.25227 
L 122.841927 150.823622 
L 122.905251 151.457199 
L 122.905251 151.457199 
L 123.363403 152.161264 
L 124.142136 152.839184 
L 125.133347 153.368101 
L 126.229012 153.625158 
L 127.323235 153.494846 
L 128.360603 153.030634 
L 130.246819 151.997631 
L 131.090012 151.888428 
L 131.090012 151.888428 
L 131.486168 152.027231 
L 132.242828 152.638252 
L 134.964554 155.658728 
L 135.845306 156.11599 
L 137.735458 156.864902 
L 138.166969 157.308302 
L 138.390015 157.930037 
L 139.02372 160.997356 
L 139.510429 161.921803 
L 140.11496 162.672382 
L 140.775101 163.111214 
L 141.106606 163.170635 
L 141.428665 163.100407 
L 141.428665 163.100407 
L 142.033432 162.566376 
L 144.013847 159.918825 
L 144.444107 159.650568 
L 145.427238 159.461752 
L 147.015015 159.667505 
L 147.98468 159.796202 
L 148.751884 159.650568 
L 148.751884 159.650568 
L 149.029572 159.411875 
L 149.417282 158.650076 
L 150.209557 156.175474 
L 150.811272 155.441235 
L 151.662811 154.977064 
L 153.207054 154.536938 
L 154.782761 154.044577 
L 154.782761 154.044577 
L 155.714478 153.527912 
L 157.796509 152.151503 
L 158.65976 151.888428 
L 158.65976 151.888428 
L 159.598793 151.943291 
L 160.585014 152.288544 
L 161.574326 152.866657 
L 162.522583 153.620094 
L 163.776398 154.956997 
L 164.756699 156.417597 
L 165.413605 157.885782 
L 165.722092 159.250937 
L 165.939026 160.460724 
L 166.249214 161.173613 
L 166.844528 161.806717 
L 166.844528 161.806717 
L 167.796494 162.365044 
L 170.518204 163.728115 
L 171.152298 164.394096 
L 171.152298 164.394096 
L 171.268227 164.776783 
L 171.153282 165.636564 
L 170.494278 167.10709 
L 170.02639 168.165113 
L 169.767159 169.249407 
L 169.794342 170.293423 
L 170.065796 171.195019 
L 170.534241 171.850517 
L 171.152298 172.156237 
L 171.152298 172.156237 
L 171.878288 172.052475 
L 173.129456 171.397043 
L 174.534599 170.622509 
L 175.533768 170.303114 
L 176.553589 170.234287 
L 177.554268 170.393837 
L 178.495529 170.75569 
L 179.337067 171.293777 
L 179.337067 171.293777 
L 180.381355 172.325579 
L 181.317513 173.314838 
L 181.983757 173.762859 
L 182.75325 173.915968 
L 183.639236 173.800104 
L 185.627563 173.402491 
L 186.660286 173.449924 
L 186.660278 173.449926 
L 187.672157 173.838314 
L 188.627777 174.518967 
L 189.491562 175.400532 
L 190.227959 176.391659 
L 191.018265 177.899529 
L 191.29702 178.873884 
L 191.352043 179.824883 
L 191.161842 180.754572 
L 190.707275 181.664915 
L 190.024231 182.555927 
L 188.338295 184.27207 
L 186.834671 185.88817 
L 186.108147 187.04269 
L 185.851997 187.795883 
L 185.798721 188.542974 
L 185.798721 188.542974 
L 185.949875 189.290058 
L 186.602005 190.80858 
L 187.091057 191.992817 
L 187.091057 191.992813 
L 187.33783 193.250153 
L 187.326607 194.657999 
L 187.091057 196.305113 
L 186.462379 199.797447 
L 186.524826 200.468729 
L 186.660278 200.617411 
L 186.660278 200.617411 
L 186.877403 200.621531 
L 187.529213 200.281887 
L 189.982002 198.687683 
L 191.092506 198.321667 
L 192.178703 198.241009 
L 194.099213 198.268219 
L 194.845047 198.030033 
L 194.845047 198.030033 
L 195.400742 197.439257 
L 195.780952 196.552765 
L 196.012131 195.473406 
L 196.137383 193.717733 
L 196.137383 193.717733 
L 196.159737 190.601715 
L 196.375839 189.771677 
L 196.827003 189.074184 
L 197.521454 188.517248 
L 198.398453 188.10009 
L 199.394272 187.821564 
L 200.97216 187.659763 
L 204.752922 187.680513 
L 205.479614 187.435143 
L 206.452057 186.787886 
L 208.137627 185.156353 
L 210.245705 183.194796 
L 212.122131 181.736881 
L 213.564774 180.930563 
L 214.527283 180.649427 
L 215.481499 180.652052 
L 216.4198 181.001648 
L 217.333504 181.665203 
L 218.63678 182.965231 
L 220.198387 184.571783 
L 223.172585 187.215626 
L 225.187469 189.773798 
L 225.861008 190.267895 
L 225.861008 190.267895 
L 226.52742 190.382343 
L 227.190826 190.152958 
L 227.857346 189.651018 
L 228.87645 188.542974 
L 229.891373 187.197544 
L 230.693977 185.730032 
L 230.985695 184.728426 
L 230.999115 183.738691 
L 230.758934 182.77026 
L 229.737999 179.918375 
L 229.738007 179.918375 
L 229.687874 178.961411 
L 229.852303 177.999731 
L 230.205109 177.038082 
L 231.030334 175.606075 
L 232.516228 173.72002 
L 234.476555 171.293777 
L 234.476555 171.293777 
L 237.491997 166.981478 
L 238.339539 166.275219 
L 239.772293 165.466707 
L 241.29351 164.941153 
L 242.791611 164.676586 
L 244.234756 164.63241 
L 246.107536 164.825327 
L 246.107536 164.825327 
L 249.413742 165.497589 
L 251.452003 165.839565 
L 252.983673 165.877176 
L 253.917213 165.687769 
L 254.723083 165.256557 
L 254.723083 165.256557 
L 255.367607 164.547869 
L 255.879959 163.624117 
L 256.687569 161.479109 
L 257.486237 159.450054 
L 258.454002 157.583391 
L 260.034973 155.133282 
L 261.191208 153.649771 
L 262.477074 152.319658 
L 263.866249 151.247847 
L 265.317261 150.40596 
L 267.270248 149.534895 
L 269.188988 148.873152 
L 271.092621 148.438589 
L 271.092621 148.438589 
L 273.48288 148.185379 
L 276.358482 147.863319 
L 279.708168 147.144899 
L 279.708168 147.144899 
L 283.53714 146.357666 
L 286.409912 146.002438 
L 290.714241 145.738041 
L 292.631493 145.85121 
L 292.631485 145.85121 
L 294.074211 146.133837 
L 295.990623 146.752365 
L 297.879929 147.585449 
L 299.773621 148.669716 
L 301.247025 149.732279 
L 301.247025 149.732279 
L 303.283569 151.526859 
L 305.151703 153.540171 
L 306.261887 155.031246 
L 307.394058 156.941725 
L 310.089874 162.188313 
L 310.809853 164.108541 
L 311.585678 166.981478 
L 311.585678 166.981478 
L 312.319305 170.337286 
L 312.517586 172.248222 
L 312.500351 174.640102 
L 312.406349 178.035091 
L 312.555954 178.989025 
L 312.878014 179.918375 
L 312.878014 179.918375 
L 313.407555 180.816357 
L 314.515839 182.115767 
L 316.795273 184.217979 
L 319.050735 186.343956 
L 320.201233 187.680513 
L 320.201225 187.680513 
L 321.111366 189.084503 
L 321.811165 190.532873 
L 322.510681 192.476625 
L 322.998154 194.395426 
L 323.216667 196.305113 
L 323.216667 196.305113 
L 323.161255 197.742599 
L 322.884224 199.181982 
L 322.35511 200.617411 
L 322.35511 200.617411 
L 321.573845 202.046289 
L 319.250397 205.910318 
L 317.095634 210.111763 
L 315.837311 212.230112 
L 315.323837 213.590496 
L 315.163826 214.543699 
L 315.185539 215.470831 
L 315.418823 216.311207 
L 315.893456 217.00415 
L 315.893456 217.00415 
L 316.621552 217.50683 
L 317.544357 217.847841 
L 319.126289 218.157816 
L 324.044304 218.712915 
L 327.855186 218.890329 
L 328.816772 219.160299 
L 328.816772 219.160299 
L 329.770477 219.616526 
L 331.196571 220.585545 
L 334.105728 223.014318 
L 335.935104 224.723564 
L 337.001549 226.05998 
L 337.001541 226.05998 
L 337.492157 226.984953 
L 337.955391 228.415291 
L 338.365105 230.865536 
L 338.759117 232.821096 
L 339.319977 234.232018 
L 339.8992 235.126677 
L 341.072357 236.411528 
L 346.240616 241.409826 
L 347.340195 242.877945 
L 348.143799 244.32753 
L 348.694397 245.761049 
L 349.157799 247.667624 
L 349.416794 249.58308 
L 349.486366 251.982199 
L 349.294609 254.378193 
L 348.85746 256.772619 
L 348.40329 258.209663 
L 347.668297 259.647572 
L 346.965057 260.606272 
L 345.615204 262.008219 
L 344.073982 263.280554 
L 342.52668 264.32621 
L 340.59771 265.350121 
L 334.891533 268.020294 
L 333.009148 269.313915 
L 331.589622 270.259985 
L 330.612427 270.740534 
L 329.594894 271.01807 
L 328.042252 271.118914 
L 326.185249 271.226267 
L 325.4608 271.510349 
L 324.905098 272.013058 
L 324.501495 272.688187 
L 324.141716 273.915907 
L 324.019524 275.26203 
L 323.871635 280.759415 
L 323.577858 281.738514 
L 323.103424 282.606167 
L 322.410652 283.313841 
L 321.520706 283.864838 
L 319.47187 284.719742 
L 318.022575 285.369423 
L 316.808334 286.157719 
L 315.382713 287.391771 
L 313.717804 289.112814 
L 313.304878 289.796574 
L 313.205528 290.44276 
L 313.308792 290.744471 
L 313.850723 291.292482 
L 314.741783 291.75618 
L 316.439545 292.267914 
L 318.171654 292.525528 
L 321.491417 292.778864 
L 322.356255 293.067799 
L 323.649803 293.802872 
L 325.371216 295.129744 
L 325.801331 295.487999 
L 325.801331 295.487999 
" clip-path="url(#p5e3d32162d)" style="fill: none; stroke: #808080; stroke-width: 1.5; stroke-linecap: square"/>
   </g>
   <g id="line2d_17">
    <path d="M 273.677284 57.449072 
L 279.695122 62.164192 
" clip-path="url(#p5e3d32162d)" style="fill: none; stroke: #008000; stroke-width: 1.5; stroke-linecap: square"/>
   </g>
   <g id="line2d_18">
    <path d="M 276.67894 53.618101 
L 270.675621 61.280043 
" clip-path="url(#p5e3d32162d)" style="fill: none; stroke: #ff0000; stroke-width: 1.5; stroke-linecap: square"/>
   </g>
   <g id="line2d_19">
    <path d="M 244.38443 85.910248 
L 247.393341 91.717896 
" clip-path="url(#p5e3d32162d)" style="fill: none; stroke: #008000; stroke-width: 1.5; stroke-linecap: square"/>
   </g>
   <g id="line2d_20">
    <path d="M 248.742203 83.652506 
L 240.026657 88.16799 
" clip-path="url(#p5e3d32162d)" style="fill: none; stroke: #ff0000; stroke-width: 1.5; stroke-linecap: square"/>
   </g>
   <g id="line2d_21">
    <path d="M 212.076134 68.229818 
L 215.085045 74.43306 
" clip-path="url(#p5e3d32162d)" style="fill: none; stroke: #008000; stroke-width: 1.5; stroke-linecap: square"/>
   </g>
   <g id="line2d_22">
    <path d="M 216.454926 66.105862 
L 207.697342 70.353775 
" clip-path="url(#p5e3d32162d)" style="fill: none; stroke: #ff0000; stroke-width: 1.5; stroke-linecap: square"/>
   </g>
   <g id="line2d_23">
    <path d="M 211.214584 86.772707 
L 217.232422 87.108976 
" clip-path="url(#p5e3d32162d)" style="fill: none; stroke: #008000; stroke-width: 1.5; stroke-linecap: square"/>
   </g>
   <g id="line2d_24">
    <path d="M 211.484886 81.935467 
L 210.944283 91.609945 
" clip-path="url(#p5e3d32162d)" style="fill: none; stroke: #ff0000; stroke-width: 1.5; stroke-linecap: square"/>
   </g>
   <g id="line2d_25">
    <path d="M 193.552719 116.096342 
L 196.56163 112.814669 
" clip-path="url(#p5e3d32162d)" style="fill: none; stroke: #008000; stroke-width: 1.5; stroke-linecap: square"/>
   </g>
   <g id="line2d_26">
    <path d="M 189.816643 112.67079 
L 197.288795 119.521896 
" clip-path="url(#p5e3d32162d)" style="fill: none; stroke: #ff0000; stroke-width: 1.5; stroke-linecap: square"/>
   </g>
   <g id="line2d_27">
    <path d="M 175.029297 146.282438 
L 175.405411 139.609278 
" clip-path="url(#p5e3d32162d)" style="fill: none; stroke: #008000; stroke-width: 1.5; stroke-linecap: square"/>
   </g>
   <g id="line2d_28">
    <path d="M 179.50766 146.534849 
L 170.550934 146.030027 
" clip-path="url(#p5e3d32162d)" style="fill: none; stroke: #ff0000; stroke-width: 1.5; stroke-linecap: square"/>
   </g>
   <g id="line2d_29">
    <path d="M 144.444107 139.382759 
L 150.461945 144.249784 
" clip-path="url(#p5e3d32162d)" style="fill: none; stroke: #008000; stroke-width: 1.5; stroke-linecap: square"/>
   </g>
   <g id="line2d_30">
    <path d="M 146.803139 136.465939 
L 142.085075 142.299582 
" clip-path="url(#p5e3d32162d)" style="fill: none; stroke: #ff0000; stroke-width: 1.5; stroke-linecap: square"/>
   </g>
   <g id="line2d_31">
    <path d="M 134.536232 155.338268 
L 137.545143 151.816147 
" clip-path="url(#p5e3d32162d)" style="fill: none; stroke: #008000; stroke-width: 1.5; stroke-linecap: square"/>
   </g>
   <g id="line2d_32">
    <path d="M 130.761223 152.113312 
L 138.311241 158.563223 
" clip-path="url(#p5e3d32162d)" style="fill: none; stroke: #ff0000; stroke-width: 1.5; stroke-linecap: square"/>
   </g>
   <g id="line2d_33">
    <path d="M 165.552193 158.356876 
L 171.57003 156.834721 
" clip-path="url(#p5e3d32162d)" style="fill: none; stroke: #008000; stroke-width: 1.5; stroke-linecap: square"/>
   </g>
   <g id="line2d_34">
    <path d="M 164.496674 154.183886 
L 166.607712 162.529869 
" clip-path="url(#p5e3d32162d)" style="fill: none; stroke: #ff0000; stroke-width: 1.5; stroke-linecap: square"/>
   </g>
   <g id="line2d_35">
    <path d="M 190.968048 181.212065 
L 196.985886 184.226778 
" clip-path="url(#p5e3d32162d)" style="fill: none; stroke: #008000; stroke-width: 1.5; stroke-linecap: square"/>
   </g>
   <g id="line2d_36">
    <path d="M 193.020271 177.115513 
L 188.915825 185.308617 
" clip-path="url(#p5e3d32162d)" style="fill: none; stroke: #ff0000; stroke-width: 1.5; stroke-linecap: square"/>
   </g>
   <g id="line2d_37">
    <path d="M 200.445152 187.680513 
L 200.821266 193.150169 
" clip-path="url(#p5e3d32162d)" style="fill: none; stroke: #008000; stroke-width: 1.5; stroke-linecap: square"/>
   </g>
   <g id="line2d_38">
    <path d="M 195.687881 188.007643 
L 205.202423 187.353386 
" clip-path="url(#p5e3d32162d)" style="fill: none; stroke: #ff0000; stroke-width: 1.5; stroke-linecap: square"/>
   </g>
   <g id="line2d_39">
    <path d="M 229.738007 179.918375 
L 235.755844 178.869265 
" clip-path="url(#p5e3d32162d)" style="fill: none; stroke: #008000; stroke-width: 1.5; stroke-linecap: square"/>
   </g>
   <g id="line2d_40">
    <path d="M 230.485649 184.206972 
L 228.990364 175.629778 
" clip-path="url(#p5e3d32162d)" style="fill: none; stroke: #ff0000; stroke-width: 1.5; stroke-linecap: square"/>
   </g>
   <g id="line2d_41">
    <path d="M 262.477074 152.319658 
L 265.485985 155.667072 
" clip-path="url(#p5e3d32162d)" style="fill: none; stroke: #008000; stroke-width: 1.5; stroke-linecap: square"/>
   </g>
   <g id="line2d_42">
    <path d="M 258.447586 155.941675 
L 266.506561 148.697639 
" clip-path="url(#p5e3d32162d)" style="fill: none; stroke: #ff0000; stroke-width: 1.5; stroke-linecap: square"/>
   </g>
   <g id="line2d_43">
    <path d="M 305.554802 154.044577 
L 311.572639 149.406013 
" clip-path="url(#p5e3d32162d)" style="fill: none; stroke: #008000; stroke-width: 1.5; stroke-linecap: square"/>
   </g>
   <g id="line2d_44">
    <path d="M 302.079651 149.536098 
L 309.029953 158.553057 
" clip-path="url(#p5e3d32162d)" style="fill: none; stroke: #ff0000; stroke-width: 1.5; stroke-linecap: square"/>
   </g>
   <g id="line2d_45">
    <path d="M 323.216667 196.305113 
L 329.234505 196.115175 
" clip-path="url(#p5e3d32162d)" style="fill: none; stroke: #008000; stroke-width: 1.5; stroke-linecap: square"/>
   </g>
   <g id="line2d_46">
    <path d="M 323.080833 192.001377 
L 323.352501 200.60885 
" clip-path="url(#p5e3d32162d)" style="fill: none; stroke: #ff0000; stroke-width: 1.5; stroke-linecap: square"/>
   </g>
   <g id="line2d_47">
    <path d="M 337.001541 226.05998 
L 343.019379 222.218771 
" clip-path="url(#p5e3d32162d)" style="fill: none; stroke: #008000; stroke-width: 1.5; stroke-linecap: square"/>
   </g>
   <g id="line2d_48">
    <path d="M 334.384407 221.959845 
L 339.618675 230.160114 
" clip-path="url(#p5e3d32162d)" style="fill: none; stroke: #ff0000; stroke-width: 1.5; stroke-linecap: square"/>
   </g>
   <g id="line2d_49">
    <path d="M 338.724648 266.164364 
L 341.733559 273.327782 
" clip-path="url(#p5e3d32162d)" style="fill: none; stroke: #008000; stroke-width: 1.5; stroke-linecap: square"/>
   </g>
   <g id="line2d_50">
    <path d="M 342.97049 264.380943 
L 334.478806 267.947783 
" clip-path="url(#p5e3d32162d)" style="fill: none; stroke: #ff0000; stroke-width: 1.5; stroke-linecap: square"/>
   </g>
   <g id="line2d_51">
    <path d="M 317.616562 292.469389 
L 318.36879 286.379168 
" clip-path="url(#p5e3d32162d)" style="fill: none; stroke: #008000; stroke-width: 1.5; stroke-linecap: square"/>
   </g>
   <g id="line2d_52">
    <path d="M 312.490196 291.83621 
L 322.742928 293.10257 
" clip-path="url(#p5e3d32162d)" style="fill: none; stroke: #ff0000; stroke-width: 1.5; stroke-linecap: square"/>
   </g>
   <g id="patch_3">
    <path d="M 57.6 307.584 
L 57.6 41.472 
" style="fill: none; stroke: #000000; stroke-width: 0.8; stroke-linejoin: miter; stroke-linecap: square"/>
   </g>
   <g id="patch_4">
    <path d="M 414.72 307.584 
L 414.72 41.472 
" style="fill: none; stroke: #000000; stroke-width: 0.8; stroke-linejoin: miter; stroke-linecap: square"/>
   </g>
   <g id="patch_5">
    <path d="M 57.599998 307.584 
L 414.720001 307.584 
" style="fill: none; stroke: #000000; stroke-width: 0.8; stroke-linejoin: miter; stroke-linecap: square"/>
   </g>
   <g id="patch_6">
    <path d="M 57.599998 41.472 
L 414.720001 41.472 
" style="fill: none; stroke: #000000; stroke-width: 0.8; stroke-linejoin: miter; stroke-linecap: square"/>
   </g>
   <g id="text_18">
    <!-- кубические сплайны -->
    <g transform="translate(170.434687 35.472)scale(0.12 -0.12)">
     <defs>
      <path id="DejaVuSans-43a" d="M 581 3500 
L 1153 3500 
L 1153 1856 
L 2775 3500 
L 3481 3500 
L 2144 2147 
L 3653 0 
L 3009 0 
L 1769 1766 
L 1153 1141 
L 1153 0 
L 581 0 
L 581 3500 
z
" transform="scale(0.015625)"/>
      <path id="DejaVuSans-443" d="M 2059 -325 
Q 1816 -950 1584 -1140 
Q 1353 -1331 966 -1331 
L 506 -1331 
L 506 -850 
L 844 -850 
Q 1081 -850 1212 -737 
Q 1344 -625 1503 -206 
L 1606 56 
L 191 3500 
L 800 3500 
L 1894 763 
L 2988 3500 
L 3597 3500 
L 2059 -325 
z
" transform="scale(0.015625)"/>
      <path id="DejaVuSans-431" d="M 1991 3584 
Q 2741 3584 3169 3096 
Q 3597 2609 3597 1747 
Q 3597 888 3169 398 
Q 2741 -91 1991 -91 
Q 1238 -91 822 384 
Q 406 859 384 1747 
L 366 2463 
Q 350 2834 350 2963 
Q 350 3463 531 3831 
Q 816 4409 1308 4659 
Q 1800 4909 2625 4916 
Q 3006 4919 3175 4972 
L 3334 4516 
Q 3181 4453 3041 4450 
L 2259 4397 
Q 1866 4369 1628 4231 
Q 1006 3866 947 3388 
L 925 3213 
Q 1331 3584 1991 3584 
z
M 1991 3097 
Q 1528 3097 1259 2736 
Q 991 2375 991 1747 
Q 991 1119 1258 758 
Q 1525 397 1991 397 
Q 2450 397 2719 759 
Q 2988 1122 2988 1747 
Q 2988 2369 2719 2733 
Q 2450 3097 1991 3097 
z
" transform="scale(0.015625)"/>
      <path id="DejaVuSans-438" d="M 3578 3500 
L 3578 0 
L 3006 0 
L 3006 2809 
L 1319 0 
L 581 0 
L 581 3500 
L 1153 3500 
L 1153 697 
L 2838 3500 
L 3578 3500 
z
" transform="scale(0.015625)"/>
      <path id="DejaVuSans-447" d="M 2625 0 
L 2625 1472 
L 1553 1472 
Q 1075 1472 756 1769 
Q 469 2038 469 2613 
L 469 3500 
L 1044 3500 
L 1044 2666 
Q 1044 2300 1206 2116 
Q 1372 1931 1697 1931 
L 2625 1931 
L 2625 3500 
L 3200 3500 
L 3200 0 
L 2625 0 
z
" transform="scale(0.015625)"/>
      <path id="DejaVuSans-435" d="M 3597 1894 
L 3597 1613 
L 953 1613 
Q 991 1019 1311 708 
Q 1631 397 2203 397 
Q 2534 397 2845 478 
Q 3156 559 3463 722 
L 3463 178 
Q 3153 47 2828 -22 
Q 2503 -91 2169 -91 
Q 1331 -91 842 396 
Q 353 884 353 1716 
Q 353 2575 817 3079 
Q 1281 3584 2069 3584 
Q 2775 3584 3186 3129 
Q 3597 2675 3597 1894 
z
M 3022 2063 
Q 3016 2534 2758 2815 
Q 2500 3097 2075 3097 
Q 1594 3097 1305 2825 
Q 1016 2553 972 2059 
L 3022 2063 
z
" transform="scale(0.015625)"/>
      <path id="DejaVuSans-441" d="M 3122 3366 
L 3122 2828 
Q 2878 2963 2633 3030 
Q 2388 3097 2138 3097 
Q 1578 3097 1268 2742 
Q 959 2388 959 1747 
Q 959 1106 1268 751 
Q 1578 397 2138 397 
Q 2388 397 2633 464 
Q 2878 531 3122 666 
L 3122 134 
Q 2881 22 2623 -34 
Q 2366 -91 2075 -91 
Q 1284 -91 818 406 
Q 353 903 353 1747 
Q 353 2603 823 3093 
Q 1294 3584 2113 3584 
Q 2378 3584 2631 3529 
Q 2884 3475 3122 3366 
z
" transform="scale(0.015625)"/>
      <path id="DejaVuSans-20" transform="scale(0.015625)"/>
      <path id="DejaVuSans-43f" d="M 3603 3500 
L 3603 0 
L 3025 0 
L 3025 3041 
L 1159 3041 
L 1159 0 
L 581 0 
L 581 3500 
L 3603 3500 
z
" transform="scale(0.015625)"/>
      <path id="DejaVuSans-43b" d="M 238 0 
L 238 478 
Q 806 566 981 959 
Q 1194 1513 1194 2928 
L 1194 3500 
L 3559 3500 
L 3559 0 
L 2984 0 
L 2984 3041 
L 1769 3041 
L 1769 2694 
Q 1769 1344 1494 738 
Q 1200 91 238 0 
z
" transform="scale(0.015625)"/>
      <path id="DejaVuSans-430" d="M 2194 1759 
Q 1497 1759 1228 1600 
Q 959 1441 959 1056 
Q 959 750 1161 570 
Q 1363 391 1709 391 
Q 2188 391 2477 730 
Q 2766 1069 2766 1631 
L 2766 1759 
L 2194 1759 
z
M 3341 1997 
L 3341 0 
L 2766 0 
L 2766 531 
Q 2569 213 2275 61 
Q 1981 -91 1556 -91 
Q 1019 -91 701 211 
Q 384 513 384 1019 
Q 384 1609 779 1909 
Q 1175 2209 1959 2209 
L 2766 2209 
L 2766 2266 
Q 2766 2663 2505 2880 
Q 2244 3097 1772 3097 
Q 1472 3097 1187 3025 
Q 903 2953 641 2809 
L 641 3341 
Q 956 3463 1253 3523 
Q 1550 3584 1831 3584 
Q 2591 3584 2966 3190 
Q 3341 2797 3341 1997 
z
" transform="scale(0.015625)"/>
      <path id="DejaVuSans-439" d="M 3578 3500 
L 3578 0 
L 3006 0 
L 3006 2809 
L 1319 0 
L 581 0 
L 581 3500 
L 1153 3500 
L 1153 697 
L 2838 3500 
L 3578 3500 
z
M 1102 4833 
L 1471 4833 
Q 1505 4599 1656 4481 
Q 1808 4364 2080 4364 
Q 2349 4364 2499 4480 
Q 2649 4596 2689 4833 
L 3058 4833 
Q 3027 4386 2780 4161 
Q 2533 3936 2080 3936 
Q 1627 3936 1380 4161 
Q 1133 4386 1102 4833 
z
" transform="scale(0.015625)"/>
      <path id="DejaVuSans-43d" d="M 581 3500 
L 1159 3500 
L 1159 2072 
L 3025 2072 
L 3025 3500 
L 3603 3500 
L 3603 0 
L 3025 0 
L 3025 1613 
L 1159 1613 
L 1159 0 
L 581 0 
L 581 3500 
z
" transform="scale(0.015625)"/>
      <path id="DejaVuSans-44b" d="M 3907 3500 
L 4482 3500 
L 4482 0 
L 3907 0 
L 3907 3500 
z
M 4195 3584 
L 4195 3584 
z
M 2781 1038 
Q 2781 1319 2576 1466 
Q 2372 1613 1978 1613 
L 1159 1613 
L 1159 459 
L 1978 459 
Q 2372 459 2576 607 
Q 2781 756 2781 1038 
z
M 581 3500 
L 1159 3500 
L 1159 2072 
L 2003 2072 
Q 2672 2072 3033 1817 
Q 3394 1563 3394 1038 
Q 3394 513 3033 256 
Q 2672 0 2003 0 
L 581 0 
L 581 3500 
z
" transform="scale(0.015625)"/>
     </defs>
     <use xlink:href="#DejaVuSans-43a"/>
     <use xlink:href="#DejaVuSans-443" x="60.400391"/>
     <use xlink:href="#DejaVuSans-431" x="119.580078"/>
     <use xlink:href="#DejaVuSans-438" x="181.25"/>
     <use xlink:href="#DejaVuSans-447" x="246.240234"/>
     <use xlink:href="#DejaVuSans-435" x="305.322266"/>
     <use xlink:href="#DejaVuSans-441" x="366.845703"/>
     <use xlink:href="#DejaVuSans-43a" x="421.826172"/>
     <use xlink:href="#DejaVuSans-438" x="482.226562"/>
     <use xlink:href="#DejaVuSans-435" x="547.216797"/>
     <use xlink:href="#DejaVuSans-20" x="608.740234"/>
     <use xlink:href="#DejaVuSans-441" x="640.527344"/>
     <use xlink:href="#DejaVuSans-43f" x="695.507812"/>
     <use xlink:href="#DejaVuSans-43b" x="760.888672"/>
     <use xlink:href="#DejaVuSans-430" x="824.804688"/>
     <use xlink:href="#DejaVuSans-439" x="886.083984"/>
     <use xlink:href="#DejaVuSans-43d" x="951.074219"/>
     <use xlink:href="#DejaVuSans-44b" x="1016.455078"/>
    </g>
   </g>
  </g>
 </g>
 <defs>
  <clipPath id="p5e3d32162d">
   <rect x="57.6" y="41.472" width="357.12" height="266.112"/>
  </clipPath>
 </defs>
</svg>
